<svg xmlns="http://www.w3.org/2000/svg" xmlns:xlink="http://www.w3.org/1999/xlink" viewBox="0 0 200.45 67.62"><defs><style>.cls-1{fill:none;}.cls-2{clip-path:url(#clip-path);}.cls-3{fill:#ec6063;}.cls-4{clip-path:url(#clip-path-2);}.cls-5{clip-path:url(#clip-path-3);}.cls-6{clip-path:url(#clip-path-4);}</style><clipPath id="clip-path"><rect class="cls-1" width="54.33" height="62.26"/></clipPath><clipPath id="clip-path-2"><rect class="cls-1" x="113.21" y="14.26" width="39.41" height="48"/></clipPath><clipPath id="clip-path-3"><rect class="cls-1" x="159.57" y="14.17" width="40.89" height="48.17"/></clipPath><clipPath id="clip-path-4"><rect class="cls-1" x="59.66" y="14.26" width="46.04" height="53.36"/></clipPath></defs><g id="Calque_2" data-name="Calque 2"><g id="Calque_1-2" data-name="Calque 1"><g class="cls-2"><polygon class="cls-3" points="20.07 34.65 8.84 46.14 8.84 62.26 0 62.26 0 0 8.84 0 8.84 34.83 42.36 0 52.49 0 26.15 27.98 54.33 62.26 44.02 62.26 20.07 34.65"/></g><g class="cls-4"><path class="cls-3" d="M113.21,56.87l3.5-6.67A30.56,30.56,0,0,0,133.1,55c7.92,0,11.05-2.41,11.05-6.49,0-10.56-29.65-1.48-29.65-20.19,0-8.52,7.55-14.08,19.52-14.08,6.08,0,13.07,1.66,17.13,4.26l-3.69,6.67A23.84,23.84,0,0,0,134,21.48C126.65,21.48,123,24.26,123,28c0,11.12,29.65,2,29.65,20.38,0,8.52-7.74,13.9-20.26,13.9C124.81,62.43,117.07,60,113.21,56.87Z"/></g><g class="cls-5"><path class="cls-3" d="M192,47.52V40.85H178.91c-8.47,0-10.87,3.34-10.87,7.23,0,4.63,3.87,7.59,10.31,7.59C184.8,55.86,190,53.08,192,47.52Zm8.47-14.08V62h-8.1v-6.3c-2.76,4.27-8.1,6.67-15.47,6.67-10.68,0-17.31-5.74-17.31-13.89,0-7.6,4.79-13.71,18.78-13.71H191.8V33.07c0-7.23-4.24-11.3-12.52-11.3a24.85,24.85,0,0,0-14.92,5l-3.5-6.49c4.79-3.89,11.79-6.11,19.34-6.11C193.27,14.35,200.45,20.65,200.45,33.44Z"/></g><g class="cls-6"><polygon class="cls-3" points="105.71 34.08 83.79 21.3 71.64 14.26 59.66 35.19 59.85 54.84 81.58 67.62 83.79 66.32 83.79 47.79 93.55 30.56 103.5 36.31 103.5 54.84 105.71 53.54 105.71 34.08"/></g></g></g></svg>