<svg xmlns="http://www.w3.org/2000/svg" xmlns:xlink="http://www.w3.org/1999/xlink" viewBox="0 0 198.13 67.62"><defs><style>.cls-1{fill:none;}.cls-2{clip-path:url(#clip-path);}.cls-3{fill:#fff;}.cls-4{clip-path:url(#clip-path-2);}.cls-5{clip-path:url(#clip-path-3);}.cls-6{clip-path:url(#clip-path-4);}</style><clipPath id="clip-path"><rect class="cls-1" width="54.33" height="62.26"/></clipPath><clipPath id="clip-path-2"><rect class="cls-1" x="110.88" y="14.26" width="39.41" height="48"/></clipPath><clipPath id="clip-path-3"><rect class="cls-1" x="157.24" y="14.17" width="40.89" height="48.17"/></clipPath><clipPath id="clip-path-4"><rect class="cls-1" x="57.34" y="14.26" width="46.04" height="53.36"/></clipPath></defs><g id="Calque_2" data-name="Calque 2"><g id="Calque_1-2" data-name="Calque 1"><g class="cls-2"><polygon class="cls-3" points="20.07 34.65 8.84 46.14 8.84 62.26 0 62.26 0 0 8.84 0 8.84 34.83 42.36 0 52.49 0 26.15 27.98 54.33 62.26 44.02 62.26 20.07 34.65"/></g><g class="cls-4"><path class="cls-3" d="M110.88,56.87l3.5-6.67A30.56,30.56,0,0,0,130.77,55c7.92,0,11-2.41,11-6.49,0-10.56-29.65-1.48-29.65-20.19,0-8.52,7.55-14.08,19.52-14.08,6.08,0,13.08,1.66,17.13,4.26l-3.68,6.67a23.87,23.87,0,0,0-13.45-3.71c-7.36,0-11,2.78-11,6.49,0,11.12,29.65,2,29.65,20.38,0,8.52-7.73,13.9-20.26,13.9C122.48,62.43,114.75,60,110.88,56.87Z"/></g><g class="cls-5"><path class="cls-3" d="M189.66,47.52V40.85H176.58c-8.47,0-10.87,3.34-10.87,7.23,0,4.63,3.87,7.59,10.32,7.59C182.47,55.86,187.63,53.08,189.66,47.52Zm8.47-14.08V62H190v-6.3c-2.77,4.27-8.11,6.67-15.47,6.67-10.69,0-17.32-5.74-17.32-13.89,0-7.6,4.79-13.71,18.79-13.71h13.44V33.07c0-7.23-4.23-11.3-12.52-11.3a24.85,24.85,0,0,0-14.92,5l-3.5-6.49c4.79-3.89,11.79-6.11,19.34-6.11C191,14.35,198.13,20.65,198.13,33.44Z"/></g><g class="cls-6"><polygon class="cls-3" points="103.38 34.08 81.47 21.3 69.31 14.26 57.34 35.19 57.52 54.84 79.25 67.62 81.47 66.32 81.47 47.79 91.23 30.56 101.17 36.31 101.17 54.84 103.38 53.54 103.38 34.08"/></g></g></g></svg>